<?xml version="1.0" encoding="UTF-8"?><svg id="Layer_1" xmlns="http://www.w3.org/2000/svg" xmlns:xlink="http://www.w3.org/1999/xlink" viewBox="0 0 635.04 357"><defs><style>.cls-1{letter-spacing:0em;}.cls-2{letter-spacing:0em;}.cls-3{clip-path:url(#clippath);}.cls-4,.cls-5,.cls-6,.cls-7{fill:none;}.cls-4,.cls-8,.cls-9{stroke-width:0px;}.cls-10{letter-spacing:0em;}.cls-11{letter-spacing:0em;}.cls-12{letter-spacing:-.01em;}.cls-13{letter-spacing:-.01em;}.cls-14{letter-spacing:0em;}.cls-15{clip-path:url(#clippath-1);}.cls-16{clip-path:url(#clippath-4);}.cls-17{clip-path:url(#clippath-3);}.cls-18{clip-path:url(#clippath-2);}.cls-19{clip-path:url(#clippath-7);}.cls-20{clip-path:url(#clippath-8);}.cls-21{clip-path:url(#clippath-6);}.cls-22{clip-path:url(#clippath-5);}.cls-23{clip-path:url(#clippath-9);}.cls-24{font-size:10.56px;}.cls-24,.cls-25{font-family:UWVWerk-Regular, 'UWV Werk';}.cls-25{font-size:10.58px;}.cls-26{clip-path:url(#clippath-20);}.cls-27{clip-path:url(#clippath-21);}.cls-28{clip-path:url(#clippath-24);}.cls-29{clip-path:url(#clippath-23);}.cls-30{clip-path:url(#clippath-22);}.cls-31{clip-path:url(#clippath-25);}.cls-32{clip-path:url(#clippath-27);}.cls-33{clip-path:url(#clippath-28);}.cls-34{clip-path:url(#clippath-26);}.cls-35{clip-path:url(#clippath-29);}.cls-36{clip-path:url(#clippath-14);}.cls-37{clip-path:url(#clippath-13);}.cls-38{clip-path:url(#clippath-12);}.cls-39{clip-path:url(#clippath-10);}.cls-40{clip-path:url(#clippath-15);}.cls-41{clip-path:url(#clippath-17);}.cls-42{clip-path:url(#clippath-16);}.cls-43{clip-path:url(#clippath-19);}.cls-44{clip-path:url(#clippath-11);}.cls-45{clip-path:url(#clippath-18);}.cls-46{letter-spacing:-.01em;}.cls-47{letter-spacing:0em;}.cls-48{letter-spacing:0em;}.cls-49{letter-spacing:-.01em;}.cls-5{opacity:0;stroke-miterlimit:10;stroke-width:.14px;}.cls-5,.cls-7{stroke:#000;}.cls-6{stroke:#ccc;}.cls-6,.cls-7{stroke-linejoin:round;stroke-width:.5px;}.cls-8{fill:#fff;}.cls-9{fill:#0078d2;}</style><clipPath id="clippath"><rect class="cls-4" width="635.04" height="357"/></clipPath><clipPath id="clippath-1"><rect class="cls-4" y="0" width="635.04" height="357"/></clipPath><clipPath id="clippath-2"><rect class="cls-4" y="0" width="635.04" height="357"/></clipPath><clipPath id="clippath-3"><rect class="cls-4" x="0" y="0" width="634.92" height="357"/></clipPath><clipPath id="clippath-4"><rect class="cls-4" x="48.84" y="11.28" width="575.88" height="301.68"/></clipPath><clipPath id="clippath-5"><rect class="cls-4" x="0" y="0" width="634.92" height="357"/></clipPath><clipPath id="clippath-6"><rect class="cls-4" x="0" y="0" width="634.92" height="357"/></clipPath><clipPath id="clippath-7"><rect class="cls-4" x="0" y="0" width="634.92" height="357"/></clipPath><clipPath id="clippath-8"><rect class="cls-4" x="0" width="634.92" height="357"/></clipPath><clipPath id="clippath-9"><rect class="cls-4" x="0" width="634.92" height="357"/></clipPath><clipPath id="clippath-10"><rect class="cls-4" x="0" width="634.92" height="357"/></clipPath><clipPath id="clippath-11"><rect class="cls-4" x="0" width="634.92" height="357"/></clipPath><clipPath id="clippath-12"><rect class="cls-4" x="0" width="634.92" height="357"/></clipPath><clipPath id="clippath-13"><rect class="cls-4" x="0" width="634.92" height="357"/></clipPath><clipPath id="clippath-14"><rect class="cls-4" x="0" width="634.92" height="357"/></clipPath><clipPath id="clippath-15"><rect class="cls-4" x="0" width="634.92" height="357"/></clipPath><clipPath id="clippath-16"><rect class="cls-4" x="0" width="634.92" height="357"/></clipPath><clipPath id="clippath-17"><rect class="cls-4" x="0" width="634.92" height="357"/></clipPath><clipPath id="clippath-18"><rect class="cls-4" x="0" width="634.92" height="357"/></clipPath><clipPath id="clippath-19"><rect class="cls-4" x="0" width="634.92" height="357"/></clipPath><clipPath id="clippath-20"><rect class="cls-4" x="0" width="634.92" height="357"/></clipPath><clipPath id="clippath-21"><rect class="cls-4" x="0" width="634.92" height="357"/></clipPath><clipPath id="clippath-22"><rect class="cls-4" x="0" width="634.92" height="357"/></clipPath><clipPath id="clippath-23"><rect class="cls-4" x="0" width="634.92" height="357"/></clipPath><clipPath id="clippath-24"><rect class="cls-4" x="0" width="634.92" height="357"/></clipPath><clipPath id="clippath-25"><rect class="cls-4" x="0" width="634.92" height="357"/></clipPath><clipPath id="clippath-26"><rect class="cls-4" x="0" width="634.92" height="357"/></clipPath><clipPath id="clippath-27"><rect class="cls-4" x="0" width="634.92" height="357"/></clipPath><clipPath id="clippath-28"><rect class="cls-4" x="0" width="634.92" height="357"/></clipPath><clipPath id="clippath-29"><rect class="cls-4" x="0" width="634.92" height="357"/></clipPath></defs><g class="cls-3"><g class="cls-15"><rect class="cls-8" y="0" width="635" height="357"/></g><g class="cls-18"><rect class="cls-5" y="0" width="635" height="357"/></g><g class="cls-17"><path class="cls-6" d="m48.92,11.3h575.08M48.92,61.44h575.08M48.92,111.6h575.08M48.92,161.76h575.08M48.92,211.92h575.08M48.92,262.08h575.08"/></g><g class="cls-16"><path class="cls-9" d="m590.4,123.72h19.2v188.56h-19.2V123.72Zm-47.88-3.72h19.2v192.28h-19.2V120Zm-47.88-3.72h19.08v196h-19.08V116.28Zm-48-5.52h19.2v201.52h-19.2V110.76Zm-47.88,5.52h19.2v196h-19.2V116.28Zm-47.88-13.44h19.08v209.44h-19.08V102.84Zm-48-21.24h19.2v230.68h-19.2V81.6Zm-47.88-11.04h19.2v241.72h-19.2V70.56Zm-47.88,19.56h19.08v222.16h-19.08V90.12Zm-48-21.48h19.2v243.64h-19.2V68.64Zm-47.88-23.16h19.2v266.8h-19.2V45.48Zm-48-20.64h19.2v287.44h-19.2V24.84Z"/></g><g class="cls-22"><line class="cls-7" x1="48.92" y1="312.28" x2="624" y2="312.28"/></g><g class="cls-21"><path class="cls-7" d="m624,312.28v19.86m-191.64-19.86v19.86m-191.76-19.86v19.86m-191.68-19.86v19.86"/></g><g class="cls-19"><path class="cls-7" d="m624,332.14v19.86m-191.64-19.86v19.86m-191.76-19.86v19.86m-191.68-19.86v19.86"/></g><g class="cls-20"><text class="cls-24" transform="translate(33.29 315.29)"><tspan x="0" y="0">0</tspan></text></g><g class="cls-23"><text class="cls-25" transform="translate(12.6 265.1)"><tspan x="0" y="0">5</tspan><tspan class="cls-48" x="6.14" y="0">.</tspan><tspan x="8.53" y="0">0</tspan><tspan class="cls-46" x="14.67" y="0">0</tspan><tspan class="cls-10" x="20.66" y="0">0</tspan></text></g><g class="cls-39"><text class="cls-25" transform="translate(6.5 214.92)"><tspan x="0" y="0">1</tspan><tspan class="cls-2" x="6.14" y="0">0</tspan><tspan class="cls-47" x="12.25" y="0">.</tspan><tspan class="cls-12" x="14.66" y="0">0</tspan><tspan x="20.67" y="0">00</tspan></text></g><g class="cls-44"><text class="cls-25" transform="translate(6.5 164.74)"><tspan x="0" y="0">1</tspan><tspan class="cls-2" x="6.14" y="0">5</tspan><tspan class="cls-47" x="12.25" y="0">.</tspan><tspan class="cls-12" x="14.66" y="0">0</tspan><tspan x="20.67" y="0">00</tspan></text></g><g class="cls-38"><text class="cls-24" transform="translate(6.5 114.58)"><tspan x="0" y="0">20</tspan><tspan class="cls-14" x="12.25" y="0">.</tspan><tspan class="cls-49" x="14.65" y="0">0</tspan><tspan x="20.65" y="0">00</tspan></text></g><g class="cls-37"><text class="cls-24" transform="translate(6.5 64.39)"><tspan x="0" y="0">25</tspan><tspan class="cls-14" x="12.25" y="0">.</tspan><tspan class="cls-49" x="14.65" y="0">0</tspan><tspan x="20.65" y="0">00</tspan></text></g><g class="cls-36"><text class="cls-24" transform="translate(6.5 14.21)"><tspan x="0" y="0">30</tspan><tspan class="cls-14" x="12.25" y="0">.</tspan><tspan class="cls-49" x="14.65" y="0">0</tspan><tspan x="20.65" y="0">00</tspan></text></g><g class="cls-40"><text class="cls-24" transform="translate(71.47 328.63)"><tspan x="0" y="0">I</tspan></text></g><g class="cls-42"><text class="cls-24" transform="translate(117.98 328.63)"><tspan x="0" y="0">II</tspan></text></g><g class="cls-41"><text class="cls-24" transform="translate(164.47 328.63)"><tspan x="0" y="0">III</tspan></text></g><g class="cls-45"><text class="cls-24" transform="translate(212.16 328.63)"><tspan x="0" y="0">IV</tspan></text></g><g class="cls-43"><text class="cls-24" transform="translate(263.21 328.63)"><tspan x="0" y="0">I</tspan></text></g><g class="cls-26"><text class="cls-24" transform="translate(309.7 328.63)"><tspan x="0" y="0">II</tspan></text></g><g class="cls-27"><text class="cls-24" transform="translate(356.21 328.63)"><tspan x="0" y="0">III</tspan></text></g><g class="cls-30"><text class="cls-24" transform="translate(403.9 328.63)"><tspan x="0" y="0">IV</tspan></text></g><g class="cls-29"><text class="cls-24" transform="translate(454.92 328.63)"><tspan x="0" y="0">I</tspan></text></g><g class="cls-28"><text class="cls-24" transform="translate(501.43 328.63)"><tspan x="0" y="0">II</tspan></text></g><g class="cls-31"><text class="cls-24" transform="translate(547.94 328.63)"><tspan x="0" y="0">III</tspan></text></g><g class="cls-34"><text class="cls-24" transform="translate(595.63 328.63)"><tspan x="0" y="0">IV</tspan></text></g><g class="cls-32"><text class="cls-24" transform="translate(132.6 348.5)"><tspan x="0" y="0">2</tspan><tspan class="cls-1" x="6.12" y="0">0</tspan><tspan class="cls-11" x="12.28" y="0">2</tspan><tspan x="18.31" y="0">3</tspan></text></g><g class="cls-33"><text class="cls-24" transform="translate(324.34 348.5)"><tspan x="0" y="0">20</tspan><tspan class="cls-13" x="12.25" y="0">2</tspan><tspan x="18.25" y="0">4</tspan></text></g><g class="cls-35"><text class="cls-24" transform="translate(516.07 348.5)"><tspan x="0" y="0">20</tspan><tspan class="cls-13" x="12.25" y="0">2</tspan><tspan x="18.25" y="0">5</tspan></text></g></g></svg>