<?xml version="1.0" encoding="UTF-8"?><svg id="Layer_1" xmlns="http://www.w3.org/2000/svg" xmlns:xlink="http://www.w3.org/1999/xlink" viewBox="0 0 635.04 357"><defs><style>.cls-1{clip-path:url(#clippath);}.cls-2,.cls-3,.cls-4,.cls-5,.cls-6{fill:none;}.cls-2,.cls-7{stroke-width:0px;}.cls-8{letter-spacing:0em;}.cls-9{letter-spacing:0em;}.cls-10{letter-spacing:-.01em;}.cls-11{letter-spacing:0em;}.cls-12{clip-path:url(#clippath-1);}.cls-13{clip-path:url(#clippath-4);}.cls-14{clip-path:url(#clippath-3);}.cls-15{clip-path:url(#clippath-2);}.cls-16{clip-path:url(#clippath-7);}.cls-17{clip-path:url(#clippath-8);}.cls-18{clip-path:url(#clippath-6);}.cls-19{clip-path:url(#clippath-5);}.cls-20{clip-path:url(#clippath-9);}.cls-3{stroke:#0078d2;stroke-linecap:round;stroke-width:2px;}.cls-3,.cls-5,.cls-6{stroke-linejoin:round;}.cls-21{font-size:10.56px;}.cls-21,.cls-22{font-family:UWVWerk-Regular, 'UWV Werk';}.cls-22{font-size:10.58px;}.cls-23{clip-path:url(#clippath-20);}.cls-24{clip-path:url(#clippath-21);}.cls-25{clip-path:url(#clippath-14);}.cls-26{clip-path:url(#clippath-13);}.cls-27{clip-path:url(#clippath-12);}.cls-28{clip-path:url(#clippath-10);}.cls-29{clip-path:url(#clippath-15);}.cls-30{clip-path:url(#clippath-17);}.cls-31{clip-path:url(#clippath-16);}.cls-32{clip-path:url(#clippath-19);}.cls-33{clip-path:url(#clippath-11);}.cls-34{clip-path:url(#clippath-18);}.cls-35{letter-spacing:-.01em;}.cls-36{letter-spacing:-.01em;}.cls-4{opacity:0;stroke:#000;stroke-miterlimit:10;stroke-width:.14px;}.cls-5{stroke:#898989;}.cls-5,.cls-6{stroke-width:.5px;}.cls-6{stroke:#ccc;}.cls-7{fill:#fff;}.cls-37{letter-spacing:0em;}</style><clipPath id="clippath"><rect class="cls-2" width="635.04" height="357"/></clipPath><clipPath id="clippath-1"><rect class="cls-2" y="0" width="635.04" height="357"/></clipPath><clipPath id="clippath-2"><rect class="cls-2" y="0" width="635.04" height="357"/></clipPath><clipPath id="clippath-3"><rect class="cls-2" x="0" y="0" width="634.92" height="357"/></clipPath><clipPath id="clippath-4"><rect class="cls-2" x="0" y="0" width="634.92" height="357"/></clipPath><clipPath id="clippath-5"><rect class="cls-2" x="0" y="0" width="634.92" height="357"/></clipPath><clipPath id="clippath-6"><rect class="cls-2" x="0" y="0" width="634.92" height="357"/></clipPath><clipPath id="clippath-7"><rect class="cls-2" x="42.72" y="11.28" width="582" height="301.68"/></clipPath><clipPath id="clippath-8"><rect class="cls-2" x="0" width="634.92" height="357"/></clipPath><clipPath id="clippath-9"><rect class="cls-2" x="0" width="634.92" height="357"/></clipPath><clipPath id="clippath-10"><rect class="cls-2" x="0" width="634.92" height="357"/></clipPath><clipPath id="clippath-11"><rect class="cls-2" x="0" width="634.92" height="357"/></clipPath><clipPath id="clippath-12"><rect class="cls-2" x="0" width="634.92" height="357"/></clipPath><clipPath id="clippath-13"><rect class="cls-2" x="0" width="634.92" height="357"/></clipPath><clipPath id="clippath-14"><rect class="cls-2" x="0" width="634.92" height="357"/></clipPath><clipPath id="clippath-15"><rect class="cls-2" x="0" width="634.92" height="357"/></clipPath><clipPath id="clippath-16"><rect class="cls-2" x="0" width="634.92" height="357"/></clipPath><clipPath id="clippath-17"><rect class="cls-2" x="0" width="634.92" height="357"/></clipPath><clipPath id="clippath-18"><rect class="cls-2" x="0" width="634.92" height="357"/></clipPath><clipPath id="clippath-19"><rect class="cls-2" x="0" width="634.92" height="357"/></clipPath><clipPath id="clippath-20"><rect class="cls-2" x="0" width="634.92" height="357"/></clipPath><clipPath id="clippath-21"><rect class="cls-2" x="0" width="634.92" height="357"/></clipPath></defs><g class="cls-1"><g class="cls-12"><rect class="cls-7" y="0" width="635" height="357"/></g><g class="cls-15"><rect class="cls-4" y="0" width="635" height="357"/></g><g class="cls-14"><path class="cls-6" d="m42.83,11.3h581.17M42.83,54.24h581.17M42.83,97.32h581.17M42.83,140.28h581.17M42.83,183.24h581.17M42.83,226.32h581.17M42.83,269.28h581.17"/></g><g class="cls-13"><line class="cls-5" x1="42.83" y1="312.28" x2="624" y2="312.28"/></g><g class="cls-19"><path class="cls-5" d="m624,312.28v19.86m-18.72-19.86v19.86m-112.56-19.86v19.86m-112.44-19.86v19.86m-112.44-19.86v19.86m-112.56-19.86v19.86m-112.45-19.86v19.86"/></g><g class="cls-18"><path class="cls-5" d="m624,332.14v19.86m-18.72-19.86v19.86m-112.56-19.86v19.86m-112.44-19.86v19.86m-112.44-19.86v19.86m-112.56-19.86v19.86m-112.45-19.86v19.86"/></g><g class="cls-16"><polyline class="cls-3" points="47.52 61.08 56.88 65.16 66.24 74.52 75.6 87.96 84.96 100.56 94.44 106.92 103.8 117.72 113.16 123.24 122.52 125.4 131.88 134.04 141.24 140.88 150.6 144.12 159.96 149.52 169.32 155.52 178.8 156.84 188.16 160.2 197.52 166.68 206.88 167.64 216.24 169.68 225.6 171.12 234.96 169.92 244.32 171.6 253.68 173.52 263.16 176.67 272.52 169.68 281.88 169.92 291.24 162.48 300.6 160.56 309.96 160.68 319.32 159 328.68 154.56 338.16 146.04 347.52 145.08 356.88 140.28 366.24 138.24 375.6 140.76 384.96 131.64 394.32 129 403.68 125.64 413.04 124.8 422.52 122.4 431.88 120.96 441.24 118.56 450.6 113.64 459.96 108.12 469.32 105.12 478.68 106.8 488.04 106.92 497.4 93.6 506.88 91.68 516.24 82.8 525.6 83.16 534.96 79.08 544.32 79.44 553.68 76.08 563.04 74.28 572.4 66.72 581.76 60.84 591.24 62.76 600.6 64.56 609.96 48.96 619.31 46.82"/></g><g class="cls-17"><text class="cls-21" transform="translate(27.19 315.29)"><tspan x="0" y="0">0</tspan></text></g><g class="cls-20"><text class="cls-21" transform="translate(6.5 272.28)"><tspan x="0" y="0">1</tspan><tspan class="cls-11" x="6.12" y="0">.</tspan><tspan class="cls-9" x="8.52" y="0">0</tspan><tspan class="cls-35" x="14.65" y="0">0</tspan><tspan x="20.65" y="0">0</tspan></text></g><g class="cls-28"><text class="cls-21" transform="translate(6.5 229.27)"><tspan x="0" y="0">2</tspan><tspan class="cls-11" x="6.12" y="0">.</tspan><tspan class="cls-9" x="8.52" y="0">0</tspan><tspan class="cls-35" x="14.65" y="0">0</tspan><tspan x="20.65" y="0">0</tspan></text></g><g class="cls-33"><text class="cls-21" transform="translate(6.5 186.26)"><tspan x="0" y="0">3</tspan><tspan class="cls-11" x="6.12" y="0">.</tspan><tspan class="cls-9" x="8.52" y="0">0</tspan><tspan class="cls-35" x="14.65" y="0">0</tspan><tspan x="20.65" y="0">0</tspan></text></g><g class="cls-27"><text class="cls-22" transform="translate(6.5 143.23)"><tspan x="0" y="0">4</tspan><tspan class="cls-37" x="6.14" y="0">.</tspan><tspan x="8.52" y="0">0</tspan><tspan class="cls-36" x="14.66" y="0">0</tspan><tspan x="20.65" y="0">0</tspan></text></g><g class="cls-26"><text class="cls-21" transform="translate(6.5 100.22)"><tspan x="0" y="0">5</tspan><tspan class="cls-11" x="6.12" y="0">.</tspan><tspan class="cls-9" x="8.52" y="0">0</tspan><tspan class="cls-35" x="14.65" y="0">0</tspan><tspan x="20.65" y="0">0</tspan></text></g><g class="cls-25"><text class="cls-21" transform="translate(6.5 57.22)"><tspan x="0" y="0">6</tspan><tspan class="cls-11" x="6.12" y="0">.</tspan><tspan class="cls-9" x="8.52" y="0">0</tspan><tspan class="cls-35" x="14.65" y="0">0</tspan><tspan x="20.65" y="0">0</tspan></text></g><g class="cls-29"><text class="cls-21" transform="translate(6.5 14.21)"><tspan x="0" y="0">7</tspan><tspan class="cls-11" x="6.12" y="0">.</tspan><tspan class="cls-9" x="8.52" y="0">0</tspan><tspan class="cls-35" x="14.65" y="0">0</tspan><tspan x="20.65" y="0">0</tspan></text></g><g class="cls-31"><text class="cls-21" transform="translate(86.9 348.5)"><tspan x="0" y="0">20</tspan><tspan class="cls-10" x="12.25" y="0">2</tspan><tspan class="cls-9" x="18.25" y="0">1</tspan></text></g><g class="cls-30"><text class="cls-21" transform="translate(199.42 348.5)"><tspan x="0" y="0">20</tspan><tspan class="cls-10" x="12.25" y="0">2</tspan><tspan class="cls-9" x="18.25" y="0">2</tspan></text></g><g class="cls-34"><text class="cls-21" transform="translate(311.93 348.5)"><tspan x="0" y="0">20</tspan><tspan class="cls-10" x="12.25" y="0">2</tspan><tspan class="cls-8" x="18.25" y="0">3</tspan></text></g><g class="cls-32"><text class="cls-21" transform="translate(424.42 348.5)"><tspan x="0" y="0">20</tspan><tspan class="cls-10" x="12.25" y="0">2</tspan><tspan x="18.25" y="0">4</tspan></text></g><g class="cls-23"><text class="cls-21" transform="translate(536.93 348.5)"><tspan x="0" y="0">20</tspan><tspan class="cls-10" x="12.25" y="0">2</tspan><tspan x="18.25" y="0">5</tspan></text></g><g class="cls-24"><text class="cls-21" transform="translate(608.64 348.5)"><tspan x="0" y="0">26</tspan></text></g></g></svg>