<?xml version="1.0" encoding="UTF-8"?><svg id="Layer_1" xmlns="http://www.w3.org/2000/svg" xmlns:xlink="http://www.w3.org/1999/xlink" viewBox="0 0 635.04 357"><defs><style>.cls-1{letter-spacing:0em;}.cls-2{clip-path:url(#clippath);}.cls-3,.cls-4,.cls-5,.cls-6,.cls-7{fill:none;}.cls-3,.cls-8{stroke-width:0px;}.cls-9{letter-spacing:0em;}.cls-10{letter-spacing:-.01em;}.cls-11{letter-spacing:-.01em;}.cls-12{clip-path:url(#clippath-1);}.cls-13{clip-path:url(#clippath-4);}.cls-14{clip-path:url(#clippath-3);}.cls-15{clip-path:url(#clippath-2);}.cls-16{clip-path:url(#clippath-7);}.cls-17{clip-path:url(#clippath-8);}.cls-18{clip-path:url(#clippath-6);}.cls-19{clip-path:url(#clippath-5);}.cls-20{clip-path:url(#clippath-9);}.cls-4{stroke:#0078d2;stroke-linecap:round;stroke-width:2px;}.cls-4,.cls-6,.cls-7{stroke-linejoin:round;}.cls-21{font-size:10.56px;}.cls-21,.cls-22{font-family:UWVWerk-Regular, 'UWV Werk';}.cls-22{font-size:10.58px;}.cls-23{clip-path:url(#clippath-20);}.cls-24{clip-path:url(#clippath-21);}.cls-25{clip-path:url(#clippath-24);}.cls-26{clip-path:url(#clippath-23);}.cls-27{clip-path:url(#clippath-22);}.cls-28{clip-path:url(#clippath-25);}.cls-29{clip-path:url(#clippath-40);}.cls-30{clip-path:url(#clippath-27);}.cls-31{clip-path:url(#clippath-28);}.cls-32{clip-path:url(#clippath-26);}.cls-33{clip-path:url(#clippath-29);}.cls-34{clip-path:url(#clippath-34);}.cls-35{clip-path:url(#clippath-35);}.cls-36{clip-path:url(#clippath-36);}.cls-37{clip-path:url(#clippath-37);}.cls-38{clip-path:url(#clippath-39);}.cls-39{clip-path:url(#clippath-33);}.cls-40{clip-path:url(#clippath-32);}.cls-41{clip-path:url(#clippath-30);}.cls-42{clip-path:url(#clippath-38);}.cls-43{clip-path:url(#clippath-31);}.cls-44{clip-path:url(#clippath-14);}.cls-45{clip-path:url(#clippath-13);}.cls-46{clip-path:url(#clippath-12);}.cls-47{clip-path:url(#clippath-10);}.cls-48{clip-path:url(#clippath-15);}.cls-49{clip-path:url(#clippath-17);}.cls-50{clip-path:url(#clippath-16);}.cls-51{clip-path:url(#clippath-19);}.cls-52{clip-path:url(#clippath-11);}.cls-53{clip-path:url(#clippath-18);}.cls-54{letter-spacing:0em;}.cls-55{letter-spacing:0em;}.cls-5{opacity:0;stroke:#000;stroke-miterlimit:10;stroke-width:.14px;}.cls-6{stroke:#898989;}.cls-6,.cls-7{stroke-width:.5px;}.cls-7{stroke:#ccc;}.cls-8{fill:#fff;}</style><clipPath id="clippath"><rect class="cls-3" width="635.04" height="357"/></clipPath><clipPath id="clippath-1"><rect class="cls-3" y="0" width="635.04" height="357"/></clipPath><clipPath id="clippath-2"><rect class="cls-3" y="0" width="635.04" height="357"/></clipPath><clipPath id="clippath-3"><rect class="cls-3" x="0" y="0" width="634.92" height="357"/></clipPath><clipPath id="clippath-4"><rect class="cls-3" x="0" y="0" width="634.92" height="357"/></clipPath><clipPath id="clippath-5"><rect class="cls-3" x="0" y="0" width="634.92" height="357"/></clipPath><clipPath id="clippath-6"><rect class="cls-3" x="0" y="0" width="634.92" height="357"/></clipPath><clipPath id="clippath-7"><rect class="cls-3" x="54.96" y="11.28" width="569.76" height="301.68"/></clipPath><clipPath id="clippath-8"><rect class="cls-3" x="0" width="634.92" height="357"/></clipPath><clipPath id="clippath-9"><rect class="cls-3" x="0" width="634.92" height="357"/></clipPath><clipPath id="clippath-10"><rect class="cls-3" x="0" width="634.92" height="357"/></clipPath><clipPath id="clippath-11"><rect class="cls-3" x="0" width="634.92" height="357"/></clipPath><clipPath id="clippath-12"><rect class="cls-3" x="0" width="634.92" height="357"/></clipPath><clipPath id="clippath-13"><rect class="cls-3" x="0" width="634.92" height="357"/></clipPath><clipPath id="clippath-14"><rect class="cls-3" x="0" width="634.92" height="357"/></clipPath><clipPath id="clippath-15"><rect class="cls-3" x="0" width="634.92" height="357"/></clipPath><clipPath id="clippath-16"><rect class="cls-3" x="0" width="634.92" height="357"/></clipPath><clipPath id="clippath-17"><rect class="cls-3" x="0" width="634.92" height="357"/></clipPath><clipPath id="clippath-18"><rect class="cls-3" x="0" width="634.92" height="357"/></clipPath><clipPath id="clippath-19"><rect class="cls-3" x="0" width="634.92" height="357"/></clipPath><clipPath id="clippath-20"><rect class="cls-3" x="0" width="634.92" height="357"/></clipPath><clipPath id="clippath-21"><rect class="cls-3" x="0" width="634.92" height="357"/></clipPath><clipPath id="clippath-22"><rect class="cls-3" x="0" width="634.92" height="357"/></clipPath><clipPath id="clippath-23"><rect class="cls-3" x="0" width="634.92" height="357"/></clipPath><clipPath id="clippath-24"><rect class="cls-3" x="0" width="634.92" height="357"/></clipPath><clipPath id="clippath-25"><rect class="cls-3" x="0" width="634.92" height="357"/></clipPath><clipPath id="clippath-26"><rect class="cls-3" x="0" width="634.92" height="357"/></clipPath><clipPath id="clippath-27"><rect class="cls-3" x="0" width="634.92" height="357"/></clipPath><clipPath id="clippath-28"><rect class="cls-3" x="0" width="634.92" height="357"/></clipPath><clipPath id="clippath-29"><rect class="cls-3" x="0" width="634.92" height="357"/></clipPath><clipPath id="clippath-30"><rect class="cls-3" x="0" width="634.92" height="357"/></clipPath><clipPath id="clippath-31"><rect class="cls-3" x="0" width="634.92" height="357"/></clipPath><clipPath id="clippath-32"><rect class="cls-3" x="0" width="634.92" height="357"/></clipPath><clipPath id="clippath-33"><rect class="cls-3" x="0" width="634.92" height="357"/></clipPath><clipPath id="clippath-34"><rect class="cls-3" x="0" width="634.92" height="357"/></clipPath><clipPath id="clippath-35"><rect class="cls-3" x="0" width="634.92" height="357"/></clipPath><clipPath id="clippath-36"><rect class="cls-3" x="0" width="634.92" height="357"/></clipPath><clipPath id="clippath-37"><rect class="cls-3" x="0" width="634.92" height="357"/></clipPath><clipPath id="clippath-38"><rect class="cls-3" x="0" width="634.92" height="357"/></clipPath><clipPath id="clippath-39"><rect class="cls-3" x="0" width="634.92" height="357"/></clipPath><clipPath id="clippath-40"><rect class="cls-3" x="0" width="634.92" height="357"/></clipPath></defs><g class="cls-2"><g class="cls-12"><rect class="cls-8" y="0" width="635" height="357"/></g><g class="cls-15"><rect class="cls-5" y="0" width="635" height="357"/></g><g class="cls-14"><path class="cls-7" d="m55.01,11.3h568.99M55.01,54.24h568.99M55.01,97.32h568.99M55.01,140.28h568.99M55.01,183.24h568.99M55.01,226.32h568.99M55.01,269.28h568.99"/></g><g class="cls-13"><line class="cls-6" x1="55.01" y1="312.28" x2="624" y2="312.28"/></g><g class="cls-19"><path class="cls-6" d="m624,312.28v19.86m-113.76-19.86v19.86m-113.88-19.86v19.86m-113.76-19.86v19.86m-113.76-19.86v19.86m-113.83-19.86v19.86"/></g><g class="cls-18"><path class="cls-6" d="m624,332.14v19.86m-113.76-19.86v19.86m-113.88-19.86v19.86m-113.76-19.86v19.86m-113.76-19.86v19.86m-113.83-19.86v19.86"/></g><g class="cls-16"><polyline class="cls-4" points="69.24 108.47 97.68 96.48 126.12 103.8 154.56 82.68 183 81.36 211.44 75.84 239.88 68.52 268.44 73.68 296.88 74.88 325.32 73.68 353.76 86.16 382.2 81.36 410.64 78.36 439.08 78.84 467.52 77.04 495.96 73.68 524.4 72.36 552.84 74.52 581.28 71.52 609.78 65.05"/></g><g class="cls-17"><text class="cls-21" transform="translate(39.38 315.29)"><tspan x="0" y="0">0</tspan></text></g><g class="cls-20"><text class="cls-21" transform="translate(6.5 272.28)"><tspan x="0" y="0">10</tspan><tspan class="cls-11" x="12.25" y="0">0</tspan><tspan x="18.25" y="0">.</tspan><tspan class="cls-55" x="20.68" y="0">0</tspan><tspan class="cls-9" x="26.78" y="0">00</tspan></text></g><g class="cls-47"><text class="cls-21" transform="translate(6.5 229.27)"><tspan x="0" y="0">20</tspan><tspan class="cls-11" x="12.25" y="0">0</tspan><tspan x="18.25" y="0">.</tspan><tspan class="cls-55" x="20.68" y="0">0</tspan><tspan class="cls-9" x="26.78" y="0">00</tspan></text></g><g class="cls-52"><text class="cls-21" transform="translate(6.5 186.26)"><tspan x="0" y="0">30</tspan><tspan class="cls-11" x="12.25" y="0">0</tspan><tspan x="18.25" y="0">.</tspan><tspan class="cls-55" x="20.68" y="0">0</tspan><tspan class="cls-9" x="26.78" y="0">00</tspan></text></g><g class="cls-46"><text class="cls-22" transform="translate(6.5 143.23)"><tspan x="0" y="0">4</tspan><tspan class="cls-1" x="6.14" y="0">0</tspan><tspan class="cls-10" x="12.25" y="0">0</tspan><tspan class="cls-54" x="18.26" y="0">.</tspan><tspan x="20.67" y="0">0</tspan><tspan class="cls-1" x="26.81" y="0">0</tspan><tspan x="32.92" y="0">0</tspan></text></g><g class="cls-45"><text class="cls-21" transform="translate(6.5 100.22)"><tspan x="0" y="0">50</tspan><tspan class="cls-11" x="12.25" y="0">0</tspan><tspan x="18.25" y="0">.</tspan><tspan class="cls-55" x="20.68" y="0">0</tspan><tspan class="cls-9" x="26.78" y="0">00</tspan></text></g><g class="cls-44"><text class="cls-21" transform="translate(6.5 57.22)"><tspan x="0" y="0">60</tspan><tspan class="cls-11" x="12.25" y="0">0</tspan><tspan x="18.25" y="0">.</tspan><tspan class="cls-55" x="20.68" y="0">0</tspan><tspan class="cls-9" x="26.78" y="0">00</tspan></text></g><g class="cls-48"><text class="cls-21" transform="translate(6.5 14.21)"><tspan x="0" y="0">70</tspan><tspan class="cls-11" x="12.25" y="0">0</tspan><tspan x="18.25" y="0">.</tspan><tspan class="cls-55" x="20.68" y="0">0</tspan><tspan class="cls-9" x="26.78" y="0">00</tspan></text></g><g class="cls-50"><text class="cls-21" transform="translate(67.82 328.63)"><tspan x="0" y="0">I</tspan></text></g><g class="cls-49"><text class="cls-21" transform="translate(94.85 328.63)"><tspan x="0" y="0">II</tspan></text></g><g class="cls-53"><text class="cls-21" transform="translate(121.87 328.63)"><tspan x="0" y="0">III</tspan></text></g><g class="cls-51"><text class="cls-21" transform="translate(150.1 328.63)"><tspan x="0" y="0">IV</tspan></text></g><g class="cls-23"><text class="cls-21" transform="translate(181.63 328.63)"><tspan x="0" y="0">I</tspan></text></g><g class="cls-24"><text class="cls-21" transform="translate(208.66 328.63)"><tspan x="0" y="0">II</tspan></text></g><g class="cls-27"><text class="cls-21" transform="translate(235.7 328.63)"><tspan x="0" y="0">III</tspan></text></g><g class="cls-26"><text class="cls-21" transform="translate(263.9 328.63)"><tspan x="0" y="0">IV</tspan></text></g><g class="cls-25"><text class="cls-21" transform="translate(295.46 328.63)"><tspan x="0" y="0">I</tspan></text></g><g class="cls-28"><text class="cls-21" transform="translate(322.49 328.63)"><tspan x="0" y="0">II</tspan></text></g><g class="cls-32"><text class="cls-21" transform="translate(349.51 328.63)"><tspan x="0" y="0">III</tspan></text></g><g class="cls-30"><text class="cls-21" transform="translate(377.74 328.63)"><tspan x="0" y="0">IV</tspan></text></g><g class="cls-31"><text class="cls-21" transform="translate(409.27 328.63)"><tspan x="0" y="0">I</tspan></text></g><g class="cls-33"><text class="cls-21" transform="translate(436.3 328.63)"><tspan x="0" y="0">II</tspan></text></g><g class="cls-41"><text class="cls-21" transform="translate(463.32 328.63)"><tspan x="0" y="0">III</tspan></text></g><g class="cls-43"><text class="cls-21" transform="translate(491.54 328.63)"><tspan x="0" y="0">IV</tspan></text></g><g class="cls-40"><text class="cls-21" transform="translate(523.1 328.63)"><tspan x="0" y="0">I</tspan></text></g><g class="cls-39"><text class="cls-21" transform="translate(550.13 328.63)"><tspan x="0" y="0">II</tspan></text></g><g class="cls-34"><text class="cls-21" transform="translate(577.15 328.63)"><tspan x="0" y="0">III</tspan></text></g><g class="cls-35"><text class="cls-21" transform="translate(605.38 328.63)"><tspan x="0" y="0">IV</tspan></text></g><g class="cls-36"><text class="cls-21" transform="translate(99.74 348.5)"><tspan x="0" y="0">20</tspan><tspan class="cls-11" x="12.25" y="0">2</tspan><tspan class="cls-9" x="18.25" y="0">1</tspan></text></g><g class="cls-37"><text class="cls-21" transform="translate(213.58 348.5)"><tspan x="0" y="0">20</tspan><tspan class="cls-11" x="12.25" y="0">2</tspan><tspan class="cls-9" x="18.25" y="0">2</tspan></text></g><g class="cls-42"><text class="cls-21" transform="translate(327.38 348.5)"><tspan x="0" y="0">20</tspan><tspan class="cls-11" x="12.25" y="0">2</tspan><tspan x="18.25" y="0">3</tspan></text></g><g class="cls-38"><text class="cls-21" transform="translate(441.22 348.5)"><tspan x="0" y="0">20</tspan><tspan class="cls-11" x="12.25" y="0">2</tspan><tspan x="18.25" y="0">4</tspan></text></g><g class="cls-29"><text class="cls-21" transform="translate(555.02 348.5)"><tspan x="0" y="0">20</tspan><tspan class="cls-11" x="12.25" y="0">2</tspan><tspan x="18.25" y="0">5</tspan></text></g></g></svg>