<svg xmlns="http://www.w3.org/2000/svg" viewBox="0 0 190.625 26.239" width="100%" height="100%"><path fill="currentColor" d="M174.78 19.45a9.2 9.2 0 0 0 1.17 3.58 6.4 6.4 0 0 0 2.59 2.44 11.16 11.16 0 0 0 7.94 0 6.5 6.5 0 0 0 2.61-2.44 9.7 9.7 0 0 0 1.15-3.61 42 42 0 0 0 .38-6.32 44 44 0 0 0-.37-6.33 9.3 9.3 0 0 0-1.16-3.6 6.5 6.5 0 0 0-2.61-2.44 11.16 11.16 0 0 0-7.94 0 6.4 6.4 0 0 0-2.59 2.44 9.2 9.2 0 0 0-1.17 3.58 43 43 0 0 0-.37 6.35 43 43 0 0 0 .37 6.35m5.09-14.17a3 3 0 0 1 5.28 0q.71 1.59.71 7.82t-.7 7.8a2.61 2.61 0 0 1-2.62 1.56 2.65 2.65 0 0 1-2.66-1.6q-.72-1.59-.72-7.76t.71-7.82M168.43 25.6V4.73h5.36V.6h-15.37v4.13h5.35V25.6Zm-21.64 0 1.2-6.28h5.32l1.23 6.28h5l-5.63-25h-6.25l-5.63 25Zm3.89-20.5 2 10.49h-4Zm-10.91 20.5V11.96h-7.7v4h3.24v.86a8.6 8.6 0 0 1-.8 4.28 2.87 2.87 0 0 1-2.64 1.27 2.59 2.59 0 0 1-2.56-1.79q-.71-1.78-.71-7.07c0-4.47.25-7.23.74-8.26a2.8 2.8 0 0 1 2.78-1.56 2.9 2.9 0 0 1 2.49 1.14 5.7 5.7 0 0 1 .84 3.39v.26h4.34v-.64q0-4-1.9-5.9t-5.93-1.9a9.8 9.8 0 0 0-4 .71 5.9 5.9 0 0 0-2.58 2.21 9.1 9.1 0 0 0-1.19 3.45 37 37 0 0 0-.38 5.93q0 7.92 1.6 10.89c1.06 2 2.91 3 5.52 3a6.4 6.4 0 0 0 3.42-.78 5.17 5.17 0 0 0 2-2.58l.34 2.76ZM120.04.6h-4.66v25h4.66Zm-19.34 25v-11h1.61c1.89 0 3.15.27 3.76.81a3.83 3.83 0 0 1 .93 3v.69l.06 2.61a23 23 0 0 0 .13 2.41 9 9 0 0 0 .3 1.49H113a4 4 0 0 1-.91-1.47 8.5 8.5 0 0 1-.35-2.27l-.13-3.31v-.32q-.15-4.72-3.46-5.6a3.53 3.53 0 0 0 2.63-1.65 7.13 7.13 0 0 0 .87-3.89q0-3.46-1.66-5-1.665-1.5-5.44-1.5H96.2v25Zm0-21.51h2.29a4.87 4.87 0 0 1 3.13.75 3.34 3.34 0 0 1 .86 2.61 4.14 4.14 0 0 1-.79 2.91 3.85 3.85 0 0 1-2.81.81h-2.68ZM80.95 25.6l1.2-6.28h5.36l1.23 6.28h5L88.07.6h-6.24l-5.63 25Zm3.9-20.5 2 10.49h-4ZM66.57 25.6v-4.26h-8.4V.6h-4.66v25Zm-16 0v-4.22h-8.4V14.5h7.64v-4h-7.63V4.76h8.21V.6H37.55v25Zm-27.34 0 3.68-8.35 3.62 8.35h5.26l-6.17-12.76L35.64.6h-5.19l-3.4 7.88L23.73.6h-5.24l5.82 12.24-6.13 12.76Zm-18.48 0 1.2-6.28h5.36l1.24 6.28h5L11.88.6H5.63L0 25.6Zm3.9-20.5 2 10.49h-4Z"></path></svg>